<svg id="Layer_1" data-name="Layer 1" xmlns="http://www.w3.org/2000/svg" viewBox="0 0 400 300" width="406" height="306" class="illustration styles_illustrationTablet__1DWOa"><path d="M82.7,120.45s-36,20.17-27.57,46.21,33.7,34.51,33.7,34.51L96,186.32Z" fill="#f4a28c"></path><path d="M82.7,120.45s-36,20.17-27.57,46.21,33.7,34.51,33.7,34.51L96,186.32Z" opacity="0.1"></path><rect x="169.29" y="54.33" width="129.63" height="166" fill="#e6e6e6"></rect><path d="M223.15,143l2.28,4.53h-5.16L214.52,144s-7,45.15-45.23,51.91V176.37L210,134.56l12.37,6.8Z" opacity="0.1"></path><polygon points="122.2 80.62 122.3 91.52 112.91 93.94 115.62 75.98 122.2 80.62" fill="#f4a28c"></polygon><rect x="53.55" y="180.01" width="53.79" height="39.28" transform="translate(-73.95 49.67) rotate(-23.88)" fill="#e6e6e6"></rect><path d="M126.54,66.23a6.45,6.45,0,0,1,8.29,6.92c-.55,5.07-2.31,12.1-7.84,10.6-8.47-2.31-5.84-13.37-5.84-13.37A11.81,11.81,0,0,1,126.54,66.23Z" fill="#f4a28c"></path><path d="M148.86,108.62a54.21,54.21,0,0,0-60.38-15.5c-9.29,3.55-17.38,10.21-17.36,22.66,0,29.19,16.88,52.41,11.77,76.86l50.89,8.53,7.43-31.26a22,22,0,0,1,10.57-14.15c5.32-3,11.22-8.52,10.39-18.23C161.43,128.9,156.8,118,148.86,108.62Z" fill="#4d85f5"></path><path d="M125.19,74.4s0-2.43-2.26-1.63-.9,4,.59,4S125.19,74.4,125.19,74.4Z" fill="#f4a28c"></path><rect x="191.29" y="114.1" width="88.54" height="86.83" fill="#878787" opacity="0.28"></rect><path d="M123.46,133.88s9.68,14.06-6.78,21.72-10.76,40.3-10.76,40.3l-23-4.54s4-12.3-5.13-39.35,43.94-46.8,43.94-46.8Z" opacity="0.1"></path><path d="M137.27,59.44s1.11,8-6.62,10.68,9.81,22.44-8.35,36.15,6.06,33.66-15.31,41.14S69.6,156.6,63.36,136.87,66.57,102,81.71,91.32s23-12.65,26.71-27.61S136.55,48,137.27,59.44Z" fill="#ffd200"></path><path d="M113.06,105.06c3.79-12.36,20.4-15.11,27.67-4.42a28.82,28.82,0,0,1,4.41,12.2c3.32,22.89,3.08,53.16,17.11,52.42s38.63-26.95,38.63-26.95L207.4,144s-29.78,57.08-64.85,35.3C114.39,161.8,105.88,128.5,113.06,105.06Z" fill="#f4a28c"></path><circle cx="233.82" cy="56.28" r="8.39" fill="#878787"></circle><circle cx="296.13" cy="203.11" r="43.36" fill="#24285b"></circle><path d="M82.93,191.36l-4.25,61h72l-16.89-51.16S108.23,196.48,82.93,191.36Z" fill="#24285b"></path><path d="M211.63,120.74H212a2.13,2.13,0,0,1,2.13,2.13v23.9a0,0,0,0,1,0,0h-4.61a0,0,0,0,1,0,0v-23.9A2.13,2.13,0,0,1,211.63,120.74Z" transform="matrix(0.54, -0.84, 0.84, 0.54, -15.25, 239.55)" fill="#4d85f5"></path><polygon points="221.51 142.73 227.57 143.88 224.01 138.85 221.51 142.73" fill="#24285b"></polygon><path d="M200.33,140.83s2.58-12,10.34-13.29S213,142,207.4,144Z" fill="#f4a28c"></path><rect x="191.29" y="81.7" width="88.54" height="15.65" fill="#878787" opacity="0.28"></rect><path d="M296.55,179.94H299a14.72,14.72,0,0,1,14.72,14.72v17.21a0,0,0,0,1,0,0H281.83a0,0,0,0,1,0,0V194.66a14.72,14.72,0,0,1,14.72-14.72Z" fill="#ffd200"></path><circle cx="298.07" cy="220.32" r="6.58" fill="#ffd200"></circle><circle cx="298.07" cy="220.32" r="6.58" opacity="0.1"></circle><rect x="277.21" y="207.84" width="40.98" height="11.01" rx="5.08" fill="#ffd200"></rect><rect x="277.21" y="207.84" width="40.98" height="11.01" rx="5.08" fill="#fff" opacity="0.63"></rect><circle cx="298.07" cy="177.47" r="4.57" fill="#ffd200"></circle><circle cx="298.07" cy="177.47" r="4.57" opacity="0.1"></circle><polygon points="105.92 195.91 112.06 252.33 78.68 252.33 82.93 191.36 105.92 195.91" opacity="0.1"></polygon></svg>